<?xml version="1.0" encoding="UTF-8"?>
<svg id="Layer_1" xmlns="http://www.w3.org/2000/svg" version="1.1" viewBox="0 0 300 300">
  <!-- Generator: Adobe Illustrator 30.3.0, SVG Export Plug-In . SVG Version: 2.1.3 Build 182)  -->
  <defs>
    <style>
      .st0 {
        fill: #a07e28;
      }
    </style>
  </defs>
  <g id="Layer_11" data-name="Layer_1">
    <g>
      <path class="st0" d="M252.32,109.78H114.17l-10.1-49.94c-.27-1.32-1.42-2.26-2.77-2.26h-53.62c-1.56,0-2.82,1.26-2.82,2.82s1.26,2.82,2.82,2.82h51.31l24.88,123.04v53.34c0,1.56,1.26,2.82,2.82,2.82h74.78c1.56,0,2.82-1.26,2.82-2.82s-1.26-2.82-2.82-2.82h-71.96v-47.97h76.99c.97,0,1.88-.5,2.39-1.33l45.82-73.37c.54-.87.57-1.97.07-2.86-.5-.9-1.44-1.45-2.47-1.45v-.02ZM202.89,133.06h-38.11v-17.64h38.11v17.64ZM202.89,161.29h-38.11v-22.58h38.11v22.58ZM159.14,115.43v17.64h-40.27l-3.57-17.64h43.84ZM159.14,138.71v22.58h-33.04c-.54,0-1.01.19-1.43.45l-4.66-23.03h39.13ZM129,183.16l-3.3-16.3c.14.02.26.08.4.08h33.04v15.7c0,.19.07.35.11.53h-30.25ZM164.79,182.63v-15.7h38.11v16.23h-38.22c.04-.18.11-.34.11-.53ZM208.54,177.39v-10.46h6.53l-6.53,10.46ZM218.59,161.29h-10.06v-22.58h24.16l-14.1,22.58ZM236.17,133.14c-.13-.02-.25-.08-.39-.08h-27.25v-17.64h38.69l-11.06,17.71h0Z"/>
      <path class="st0" d="M201.48,243.48h-74.78c-2.14,0-3.88-1.74-3.88-3.88v-53.34l-24.69-121.98h-50.45c-2.14,0-3.88-1.74-3.88-3.88s1.74-3.88,3.88-3.88h53.62c1.84,0,3.44,1.31,3.8,3.11l9.93,49.1h137.29c1.41,0,2.71.77,3.39,2s.64,2.74-.1,3.94l-45.82,73.37c-.71,1.14-1.95,1.83-3.29,1.83h-75.93v45.86h70.9c2.14,0,3.88,1.74,3.88,3.88s-1.74,3.88-3.88,3.88h.01ZM47.68,58.64c-.97,0-1.76.79-1.76,1.76s.79,1.76,1.76,1.76h51.31c.5,0,.94.36,1.04.85l24.88,123.04.02,53.55c0,.97.79,1.76,1.76,1.76h74.78c.97,0,1.76-.79,1.76-1.76s-.79-1.76-1.76-1.76h-71.96c-.58,0-1.06-.47-1.06-1.06v-47.97c0-.58.47-1.06,1.06-1.06h76.99c.6,0,1.18-.32,1.5-.83l45.82-73.37c.34-.55.36-1.23.05-1.79s-.9-.91-1.54-.91H114.17c-.51,0-.94-.36-1.04-.85l-10.1-49.94c-.17-.82-.9-1.41-1.73-1.41h-53.62,0ZM202.89,184.22h-38.22c-.32,0-.62-.14-.82-.39s-.28-.57-.22-.88l1.04-.2-.95-.16v.04-15.7c0-.58.47-1.06,1.06-1.06h38.11c.58,0,1.06.47,1.06,1.06v16.23c0,.58-.47,1.06-1.06,1.06h0ZM165.84,182.1h35.99v-14.11h-35.99v14.11ZM159.25,184.22h-30.24c-.51,0-.94-.36-1.04-.85l-3.3-16.31c-.07-.34.03-.69.27-.94.23-.25.57-.39.92-.32.05,0,.25.05.3.07h32.99c.58,0,1.06.48,1.06,1.06v15.7s.08.3.09.32c.06.31-.02.63-.22.88s-.5.39-.82.39h0ZM129.87,182.1h28.21v-14.11h-31.07l2.85,14.11h.01ZM208.54,178.45c-.1,0-.2,0-.29-.04-.45-.13-.77-.54-.77-1.02v-10.46c0-.58.47-1.06,1.06-1.06h6.53c.39,0,.74.21.93.55s.18.75-.03,1.07l-6.54,10.46c-.2.32-.54.5-.9.5h0ZM209.59,167.99v5.71l3.57-5.71h-3.57ZM124.67,162.79c-.15,0-.29-.03-.43-.09-.31-.14-.54-.42-.61-.76l-4.65-23.03c-.06-.31.02-.63.22-.88s.5-.39.82-.39h39.13c.58,0,1.06.47,1.06,1.06v22.58c0,.58-.47,1.06-1.06,1.06h-33.04c-.27,0-.55.09-.89.3-.17.1-.36.15-.54.15h0ZM121.31,139.77l4.15,20.52c.21-.04.43-.06.64-.06h31.98v-20.46h-36.77ZM218.6,162.35h-10.06c-.58,0-1.06-.47-1.06-1.06v-22.58c0-.58.47-1.06,1.06-1.06h24.16c.39,0,.74.21.93.55s.18.75-.03,1.07l-14.1,22.58c-.19.31-.54.5-.9.5h0ZM209.59,160.23h8.41l12.78-20.46h-21.19v20.46h0ZM202.89,162.35h-38.11c-.58,0-1.06-.47-1.06-1.06v-22.58c0-.58.47-1.06,1.06-1.06h38.11c.58,0,1.06.47,1.06,1.06v22.58c0,.58-.47,1.06-1.06,1.06ZM165.84,160.23h35.99v-20.46h-35.99v20.46h0ZM236.17,134.2h-.13c-.05,0-.26-.05-.31-.07h-27.19c-.58,0-1.06-.47-1.06-1.06v-17.63c0-.58.47-1.06,1.06-1.06h38.7c.39,0,.74.21.93.55s.18.75-.03,1.07l-11.06,17.71c-.2.31-.54.5-.9.5h0ZM209.59,132.01h26.04l9.69-15.52h-35.73v15.52h0ZM202.89,134.12h-38.11c-.58,0-1.06-.47-1.06-1.06v-17.63c0-.58.47-1.06,1.06-1.06h38.11c.58,0,1.06.47,1.06,1.06v17.63c0,.58-.47,1.06-1.06,1.06ZM165.84,132.01h35.99v-15.52h-35.99v15.52ZM159.14,134.12h-40.27c-.51,0-.94-.36-1.04-.85l-3.57-17.63c-.06-.31.02-.63.22-.88s.5-.39.82-.39h43.83c.58,0,1.06.47,1.06,1.06v17.63c0,.58-.47,1.06-1.06,1.06h0ZM119.74,132.01h38.35v-15.52h-41.48l3.14,15.52h-.01Z"/>
    </g>
  </g>
</svg>