<?xml version="1.0" encoding="UTF-8"?>
<svg id="Layer_1" xmlns="http://www.w3.org/2000/svg" version="1.1" viewBox="0 0 300 300">
  <!-- Generator: Adobe Illustrator 30.3.0, SVG Export Plug-In . SVG Version: 2.1.3 Build 182)  -->
  <defs>
    <style>
      .st0 {
        fill: #a07e28;
      }
    </style>
  </defs>
  <g id="Layer_5">
    <g>
      <path class="st0" d="M87.75,248.62c-.58,0-1.16-.18-1.66-.54-.99-.72-1.4-1.99-1.03-3.15l23.14-71.23-60.59-44.02c-.99-.72-1.4-1.99-1.03-3.16.38-1.16,1.46-1.95,2.68-1.95h74.9l23.14-71.23c.38-1.16,1.46-1.95,2.68-1.95s2.31.79,2.68,1.95l23.14,71.23h74.9c1.22,0,2.31.79,2.68,1.95.38,1.16-.04,2.44-1.03,3.16l-60.59,44.02,23.15,71.23c.38,1.16-.04,2.44-1.03,3.15-.99.72-2.33.72-3.32,0l-60.59-44.02-60.59,44.02c-.5.36-1.08.54-1.66.54h.03ZM57.96,130.21l55.23,40.12c.99.72,1.4,1.99,1.03,3.15l-21.09,64.92,55.23-40.12c.99-.72,2.33-.72,3.32,0l55.23,40.12-21.1-64.92c-.38-1.16.04-2.44,1.03-3.15l55.23-40.12h-68.26c-1.22,0-2.31-.79-2.68-1.95l-21.09-64.92-21.09,64.92c-.38,1.16-1.46,1.95-2.68,1.95H57.96Z"/>
      <path class="st0" d="M87.75,249.68c-.82,0-1.61-.26-2.28-.74-1.36-.99-1.93-2.73-1.41-4.34l22.91-70.5-59.97-43.57c-1.36-.99-1.93-2.74-1.41-4.34s2-2.68,3.69-2.68h74.13l22.91-70.5c.52-1.6,2-2.68,3.69-2.68s3.17,1.08,3.69,2.68l22.91,70.5h74.13c1.69,0,3.17,1.08,3.69,2.68s-.04,3.35-1.41,4.34l-59.97,43.57,22.91,70.5c.52,1.6-.04,3.35-1.41,4.34-1.37.99-3.2.99-4.56,0l-59.97-43.57-59.97,43.57c-.67.49-1.46.74-2.28.74h-.02ZM49.28,125.62c-.77,0-1.44.49-1.68,1.22s.02,1.52.64,1.97l60.59,44.02c.37.27.53.75.38,1.18l-23.14,71.23c-.24.73.02,1.52.64,1.97.61.45,1.47.44,2.07,0l60.59-44.03c.37-.27.87-.27,1.24,0l60.59,44.02c.62.45,1.45.45,2.08,0,.62-.45.88-1.24.64-1.97l-23.15-71.23c-.14-.44,0-.92.38-1.18l60.59-44.02c.62-.45.88-1.24.64-1.97s-.91-1.22-1.68-1.22h-74.9c-.46,0-.87-.29-1.01-.73l-23.14-71.23c-.47-1.46-2.88-1.46-3.36,0l-23.14,71.23c-.14.44-.55.73-1.01.73H49.28ZM206.88,239.46c-.22,0-.44-.07-.62-.2l-55.23-40.12c-.62-.45-1.45-.45-2.07,0l-55.22,40.12c-.37.27-.87.27-1.24,0-.37-.27-.53-.75-.38-1.19l21.09-64.92c.24-.73-.02-1.52-.64-1.97l-55.22-40.13c-.37-.27-.53-.75-.38-1.18.14-.44.55-.73,1.01-.73h68.26c.77,0,1.44-.49,1.68-1.22l21.09-64.92c.28-.87,1.73-.87,2.01,0l21.09,64.92c.24.73.91,1.22,1.68,1.22h68.26c.46,0,.87.3,1.01.73.14.44,0,.91-.38,1.18l-55.23,40.13c-.62.45-.88,1.24-.64,1.97l21.1,64.92c.14.44,0,.92-.38,1.19-.19.13-.41.2-.62.2h-.03ZM61.22,131.26l52.59,38.21c1.36.99,1.93,2.74,1.41,4.34l-20.09,61.82,52.59-38.21c1.37-.99,3.2-.99,4.56,0l52.59,38.21-20.09-61.82c-.52-1.6.04-3.35,1.41-4.34l52.59-38.21h-65c-1.69,0-3.17-1.08-3.69-2.68l-20.09-61.82-20.09,61.82c-.52,1.6-2,2.68-3.69,2.68H61.22Z"/>
    </g>
  </g>
</svg>