<?xml version="1.0" encoding="UTF-8"?>
<svg id="Layer_1" xmlns="http://www.w3.org/2000/svg" version="1.1" viewBox="0 0 300 300">
  <!-- Generator: Adobe Illustrator 30.3.0, SVG Export Plug-In . SVG Version: 2.1.3 Build 182)  -->
  <defs>
    <style>
      .st0 {
        fill: #a07e28;
      }
    </style>
  </defs>
  <g id="Layer_4">
    <g>
      <g>
        <path class="st0" d="M253.94,156.41c-.72,0-1.44-.28-2-.83l-101.95-101.95-101.95,101.95c-1.1,1.1-2.89,1.1-3.99,0-1.1-1.1-1.1-2.89,0-3.99l103.95-103.94c1.06-1.06,2.93-1.06,3.99,0l103.94,103.94c1.1,1.1,1.1,2.89,0,3.99-.55.55-1.27.83-2,.83h0Z"/>
        <path class="st0" d="M253.94,157.47c-1.04,0-2.01-.4-2.74-1.13l-101.2-101.2-101.2,101.2c-1.47,1.47-4.02,1.47-5.49,0-1.51-1.51-1.51-3.98,0-5.49l103.95-103.94c1.41-1.4,4.08-1.4,5.49,0l103.94,103.94c.73.73,1.13,1.71,1.13,2.75s-.4,2.01-1.13,2.74-1.71,1.13-2.75,1.13ZM150,52.58c.28,0,.55.11.75.31l101.95,101.95c.66.67,1.83.67,2.49,0,.33-.33.52-.77.52-1.24s-.18-.92-.52-1.25l-103.94-103.95c-.64-.64-1.85-.64-2.49,0l-103.95,103.95c-.33.33-.52.77-.52,1.25s.19.91.52,1.24c.68.69,1.81.69,2.49,0l101.95-101.95c.2-.2.47-.31.75-.31Z"/>
      </g>
      <g>
        <path class="st0" d="M226.02,253.09h-50.16c-1.56,0-2.82-1.26-2.82-2.82v-71.96h-46.09v71.96c0,1.56-1.26,2.82-2.82,2.82h-50.15c-1.56,0-2.82-1.26-2.82-2.82v-122.18c0-1.56,1.26-2.82,2.82-2.82s2.82,1.26,2.82,2.82v119.35h44.51v-71.96c0-1.56,1.26-2.82,2.82-2.82h51.74c1.56,0,2.82,1.26,2.82,2.82v71.96h44.51v-119.35c0-1.56,1.26-2.82,2.82-2.82s2.82,1.26,2.82,2.82v122.18c0,1.56-1.26,2.82-2.82,2.82Z"/>
        <path class="st0" d="M226.02,254.15h-50.16c-2.14,0-3.88-1.74-3.88-3.88v-70.9h-43.97v70.9c0,2.14-1.74,3.88-3.88,3.88h-50.15c-2.14,0-3.88-1.74-3.88-3.88v-122.18c0-2.14,1.74-3.88,3.88-3.88s3.88,1.74,3.88,3.88v118.29h42.39v-70.9c0-2.14,1.74-3.88,3.88-3.88h51.74c2.14,0,3.88,1.74,3.88,3.88v70.9h42.4v-118.29c0-2.14,1.74-3.88,3.88-3.88s3.88,1.74,3.88,3.88v122.18c0,2.14-1.74,3.88-3.88,3.88h0ZM126.95,177.25h46.09c.58,0,1.06.47,1.06,1.06v71.96c0,.97.79,1.76,1.76,1.76h50.16c.97,0,1.76-.79,1.76-1.76v-122.18c0-.97-.79-1.76-1.76-1.76s-1.76.79-1.76,1.76v119.35c0,.58-.47,1.06-1.06,1.06h-44.51c-.58,0-1.06-.47-1.06-1.06v-71.96c0-.97-.79-1.76-1.76-1.76h-51.74c-.97,0-1.76.79-1.76,1.76v71.96c0,.58-.47,1.06-1.06,1.06h-44.51c-.58,0-1.06-.47-1.06-1.06v-119.35c0-.97-.79-1.76-1.76-1.76s-1.76.79-1.76,1.76v122.18c0,.97.79,1.76,1.76,1.76h50.15c.97,0,1.76-.79,1.76-1.76v-71.96c0-.58.47-1.06,1.06-1.06Z"/>
      </g>
    </g>
  </g>
</svg>