<?xml version="1.0" encoding="UTF-8"?>
<svg id="Layer_2" xmlns="http://www.w3.org/2000/svg" version="1.1" viewBox="0 0 300 300">
  <!-- Generator: Adobe Illustrator 30.3.0, SVG Export Plug-In . SVG Version: 2.1.3 Build 182)  -->
  <defs>
    <style>
      .st0 {
        fill: #a07e28;
      }
    </style>
  </defs>
  <g>
    <path class="st0" d="M148.37,230.98c-3.86,0-7.73-.17-11.57-.52l-50.99-4.62h-30.06c-2.98.01-5.88-1.23-7.93-3.4-2.08-2.2-3.14-5.08-2.99-8.11.3-5.8,5.3-10.35,11.38-10.35h5.64c11.79,0,21.38-9.59,21.38-21.38v-56.71c0-35.91,29.22-65.13,65.13-65.13s65.12,29.21,65.12,65.13v56.71c0,11.79,9.59,21.38,21.39,21.38h8.9c5.51,0,10.33,3.87,11.22,9,.56,3.22-.31,6.5-2.39,8.97-2.09,2.48-5.14,3.9-8.37,3.9h-33.56l-50.73,4.61c-3.84.35-7.71.52-11.57.52ZM56.22,209.62c-3.02,0-5.6,2.24-5.74,5-.08,1.47.44,2.87,1.44,3.93,1.01,1.06,2.37,1.65,3.84,1.65h30.31l51.24,4.63c7.34.67,14.78.67,22.13,0l50.99-4.62h33.82c1.57-.01,3.04-.7,4.05-1.9,1.02-1.22,1.43-2.77,1.15-4.37-.43-2.46-2.86-4.32-5.66-4.32h-8.9c-14.9,0-27.03-12.12-27.03-27.03v-56.71c0-32.8-26.68-59.48-59.48-59.48s-59.48,26.68-59.48,59.48v56.71c0,14.9-12.12,27.03-27.03,27.03h-5.64Z"/>
    <path class="st0" d="M148.37,232.04c-3.89,0-7.81-.18-11.67-.53l-50.99-4.62-29.96.02c-3.27,0-6.44-1.36-8.7-3.74-2.28-2.41-3.45-5.57-3.27-8.89.33-6.37,5.79-11.35,12.43-11.35h5.64c11.21,0,20.32-9.12,20.32-20.33v-56.71c0-36.49,29.69-66.18,66.18-66.18s66.18,29.69,66.18,66.18v56.71c0,11.21,9.12,20.33,20.33,20.33h8.9c6.02,0,11.29,4.24,12.27,9.87.61,3.54-.34,7.12-2.63,9.84-2.29,2.72-5.64,4.28-9.18,4.28h-33.56l-50.64,4.6c-3.85.35-7.78.53-11.67.53ZM85.82,224.78l51.08,4.62c7.58.68,15.37.68,22.95,0l50.73-4.61h33.66c2.92,0,5.68-1.29,7.56-3.53,1.88-2.24,2.67-5.19,2.16-8.11-.81-4.63-5.18-8.12-10.18-8.12h-8.9c-12.38,0-22.44-10.07-22.44-22.44v-56.71c0-35.33-28.74-64.07-64.06-64.07s-64.07,28.74-64.07,64.07v56.71c0,12.38-10.07,22.44-22.44,22.44h-5.64c-5.51,0-10.05,4.11-10.32,9.35-.14,2.74.82,5.34,2.7,7.33,1.86,1.96,4.47,3.08,7.16,3.08h30.06ZM148.37,226.39c-3.73,0-7.46-.17-11.16-.51l-51.24-4.63h-30.21c-1.76,0-3.39-.7-4.61-1.98-1.21-1.27-1.82-2.95-1.73-4.71.17-3.31,3.22-6,6.8-6h5.64c14.32,0,25.97-11.65,25.97-25.97v-56.71c0-33.38,27.16-60.54,60.54-60.54s60.54,27.16,60.54,60.54v56.71c0,14.32,11.65,25.97,25.97,25.97h8.9c3.31,0,6.19,2.23,6.71,5.2.33,1.92-.16,3.78-1.38,5.24-1.22,1.44-2.99,2.27-4.86,2.27h-33.82s-50.89,4.62-50.89,4.62c-3.7.34-7.43.51-11.16.51ZM56.22,210.68c-2.47,0-4.57,1.79-4.69,4-.06,1.18.35,2.3,1.16,3.14.81.85,1.9,1.32,3.07,1.32h30.31l51.34,4.64c7.27.66,14.65.66,21.93,0l50.99-4.62,33.91-.02c1.25,0,2.43-.55,3.25-1.51.81-.97,1.14-2.22.92-3.51-.34-1.97-2.33-3.44-4.62-3.44h-8.9c-15.49,0-28.09-12.6-28.09-28.09v-56.71c0-32.21-26.21-58.42-58.42-58.42s-58.42,26.21-58.42,58.42v56.71c0,15.49-12.6,28.09-28.08,28.09h-5.64Z"/>
  </g>
  <g>
    <path class="st0" d="M148.38,251.94c-12.69,0-23.01-10.32-23.01-23.01,0-1.56,1.26-2.82,2.82-2.82s2.82,1.26,2.82,2.82c0,9.58,7.79,17.37,17.37,17.37s17.36-7.79,17.36-17.37c0-1.56,1.26-2.82,2.82-2.82s2.82,1.26,2.82,2.82c0,12.69-10.32,23.01-23.01,23.01Z"/>
    <path class="st0" d="M148.37,252.99c-13.27,0-24.07-10.8-24.07-24.07,0-2.14,1.74-3.88,3.88-3.88s3.88,1.74,3.88,3.88c0,8.99,7.31,16.31,16.31,16.31s16.31-7.31,16.31-16.31c0-2.14,1.74-3.88,3.88-3.88s3.88,1.74,3.88,3.88c0,13.27-10.8,24.07-24.07,24.07ZM128.19,227.16c-.97,0-1.76.79-1.76,1.76,0,12.1,9.85,21.95,21.95,21.95s21.95-9.85,21.95-21.95c0-.97-.79-1.76-1.76-1.76s-1.76.79-1.76,1.76c0,10.16-8.27,18.42-18.42,18.42s-18.42-8.27-18.42-18.42c0-.97-.79-1.76-1.76-1.76Z"/>
  </g>
  <g>
    <path class="st0" d="M148.38,88.75c-1.56,0-2.82-1.26-2.82-2.82v-35.04c0-1.56,1.26-2.82,2.82-2.82s2.82,1.26,2.82,2.82v35.04c0,1.56-1.26,2.82-2.82,2.82Z"/>
    <path class="st0" d="M148.37,89.81c-2.14,0-3.88-1.74-3.88-3.88v-35.04c0-2.14,1.74-3.88,3.88-3.88s3.88,1.74,3.88,3.88v35.04c0,2.14-1.74,3.88-3.88,3.88ZM148.37,49.12c-.97,0-1.76.79-1.76,1.76v35.04c0,.97.79,1.76,1.76,1.76s1.76-.79,1.76-1.76v-35.04c0-.97-.79-1.76-1.76-1.76Z"/>
  </g>
</svg>