<?xml version="1.0" encoding="UTF-8"?>
<svg id="Layer_1" xmlns="http://www.w3.org/2000/svg" version="1.1" viewBox="0 0 300 300">
  <!-- Generator: Adobe Illustrator 30.3.0, SVG Export Plug-In . SVG Version: 2.1.3 Build 182)  -->
  <defs>
    <style>
      .st0 {
        fill: #a07e28;
      }
    </style>
  </defs>
  <g id="Layer_3">
    <g>
      <g>
        <path class="st0" d="M148.79,148.11c-27.54,0-49.95-22.41-49.95-49.95s22.41-49.95,49.95-49.95,49.95,22.41,49.95,49.95-22.41,49.95-49.95,49.95ZM148.79,53.85c-24.43,0-44.31,19.88-44.31,44.31s19.88,44.31,44.31,44.31,44.31-19.88,44.31-44.31-19.88-44.31-44.31-44.31Z"/>
        <path class="st0" d="M148.8,149.17c-28.13,0-51.01-22.88-51.01-51.01s22.88-51.01,51.01-51.01,51.01,22.88,51.01,51.01-22.88,51.01-51.01,51.01ZM148.8,49.27c-26.96,0-48.89,21.93-48.89,48.89s21.93,48.89,48.89,48.89,48.89-21.93,48.89-48.89-21.93-48.89-48.89-48.89ZM148.8,143.53c-25.01,0-45.37-20.35-45.37-45.37s20.35-45.37,45.37-45.37,45.36,20.35,45.36,45.37-20.35,45.37-45.36,45.37ZM148.8,54.91c-23.85,0-43.25,19.4-43.25,43.25s19.4,43.25,43.25,43.25,43.25-19.4,43.25-43.25-19.4-43.25-43.25-43.25Z"/>
      </g>
      <g>
        <path class="st0" d="M211.31,251.79h-122.62c-1.56,0-2.82-1.26-2.82-2.82v-42.36c0-35.36,28.77-64.13,64.13-64.13s64.13,28.77,64.13,64.13v42.36c0,1.56-1.26,2.82-2.82,2.82ZM91.51,246.14h116.98v-39.54c0-32.25-26.24-58.49-58.49-58.49s-58.49,26.24-58.49,58.49v39.54h0Z"/>
        <path class="st0" d="M211.31,252.85h-122.62c-2.14,0-3.88-1.74-3.88-3.88v-42.36c0-35.95,29.24-65.19,65.19-65.19s65.19,29.24,65.19,65.19v42.36c0,2.14-1.74,3.88-3.88,3.88ZM150,143.53c-34.78,0-63.08,28.3-63.08,63.08v42.36c0,.97.79,1.76,1.76,1.76h122.62c.97,0,1.76-.79,1.76-1.76v-42.36c0-34.78-28.3-63.08-63.08-63.08h.02ZM208.49,247.2h-116.98c-.58,0-1.06-.47-1.06-1.06v-39.54c0-32.84,26.71-59.55,59.55-59.55s59.55,26.71,59.55,59.55v39.54c0,.58-.47,1.06-1.06,1.06h0ZM92.57,245.09h114.86v-38.48c0-31.67-25.77-57.43-57.43-57.43s-57.43,25.76-57.43,57.43v38.48h0Z"/>
      </g>
    </g>
  </g>
</svg>