<?xml version="1.0" encoding="UTF-8"?>
<svg id="Layer_1" xmlns="http://www.w3.org/2000/svg" version="1.1" viewBox="0 0 300 300">
  <!-- Generator: Adobe Illustrator 30.3.0, SVG Export Plug-In . SVG Version: 2.1.3 Build 182)  -->
  <defs>
    <style>
      .st0 {
        fill: #a07e28;
      }
    </style>
  </defs>
  <g>
    <path class="st0" d="M139.07,200.55c-40.84,0-74.07-33.23-74.07-74.08s33.23-74.08,74.07-74.08,74.08,33.23,74.08,74.08-33.23,74.08-74.08,74.08ZM139.07,57.7c-37.92,0-68.78,30.85-68.78,68.78s30.85,68.78,68.78,68.78,68.78-30.85,68.78-68.78-30.85-68.78-68.78-68.78Z"/>
    <path class="st0" d="M139.07,201.55c-41.39,0-75.07-33.68-75.07-75.07s33.68-75.07,75.07-75.07,75.07,33.68,75.07,75.07-33.68,75.07-75.07,75.07ZM139.07,53.39c-40.3,0-73.08,32.79-73.08,73.08s32.78,73.08,73.08,73.08,73.08-32.79,73.08-73.08-32.79-73.08-73.08-73.08ZM139.07,196.25c-38.47,0-69.77-31.3-69.77-69.77s31.3-69.77,69.77-69.77,69.77,31.3,69.77,69.77-31.3,69.77-69.77,69.77ZM139.07,58.69c-37.37,0-67.78,30.41-67.78,67.78s30.41,67.78,67.78,67.78,67.78-30.41,67.78-67.78-30.41-67.78-67.78-67.78Z"/>
  </g>
  <g>
    <path class="st0" d="M232.36,247.6c-.75,0-1.49-.32-2.02-.93l-51.51-60.55c-.95-1.12-.81-2.79.3-3.73,1.12-.95,2.78-.81,3.74.3l51.51,60.55c.95,1.12.81,2.79-.3,3.73-.5.42-1.11.63-1.72.63Z"/>
    <path class="st0" d="M232.36,248.59c-1.07,0-2.08-.47-2.77-1.28l-51.51-60.55c-1.3-1.53-1.12-3.83.41-5.14,1.53-1.29,3.83-1.11,5.14.41l51.51,60.55c1.3,1.53,1.12,3.83-.41,5.13-.66.56-1.5.87-2.36.87ZM180.84,182.74c-.38,0-.76.13-1.07.39-.69.59-.78,1.64-.18,2.33l51.51,60.55c.57.67,1.66.76,2.34.19.69-.59.78-1.63.19-2.33l-51.51-60.55c-.33-.39-.79-.58-1.27-.58Z"/>
  </g>
</svg>